<svg width="210" height="28" viewBox="0 0 210 28" fill="none" xmlns="http://www.w3.org/2000/svg">
<path d="M21.13 9.18C20.434 7.716 19.426 6.588 18.106 5.796C16.786 4.98 15.25 4.572 13.498 4.572C11.746 4.572 10.162 4.98 8.746 5.796C7.354 6.588 6.25 7.74 5.434 9.252C4.642 10.74 4.246 12.468 4.246 14.436C4.246 16.404 4.642 18.132 5.434 19.62C6.25 21.108 7.354 22.26 8.746 23.076C10.162 23.868 11.746 24.264 13.498 24.264C15.946 24.264 17.962 23.532 19.546 22.068C21.13 20.604 22.054 18.624 22.318 16.128H12.31V13.464H25.81V15.984C25.618 18.048 24.97 19.944 23.866 21.672C22.762 23.376 21.31 24.732 19.51 25.74C17.71 26.724 15.706 27.216 13.498 27.216C11.17 27.216 9.046 26.676 7.126 25.596C5.206 24.492 3.682 22.968 2.554 21.024C1.45 19.08 0.897999 16.884 0.897999 14.436C0.897999 11.988 1.45 9.792 2.554 7.848C3.682 5.88 5.206 4.356 7.126 3.276C9.046 2.172 11.17 1.62 13.498 1.62C16.162 1.62 18.514 2.28 20.554 3.6C22.618 4.92 24.118 6.78 25.054 9.18H21.13ZM49.2215 16.38C49.2215 17.004 49.1855 17.664 49.1135 18.36H33.3455C33.4655 20.304 34.1255 21.828 35.3255 22.932C36.5495 24.012 38.0255 24.552 39.7535 24.552C41.1695 24.552 42.3455 24.228 43.2815 23.58C44.2415 22.908 44.9135 22.02 45.2975 20.916H48.8255C48.2975 22.812 47.2415 24.36 45.6575 25.56C44.0735 26.736 42.1055 27.324 39.7535 27.324C37.8815 27.324 36.2015 26.904 34.7135 26.064C33.2495 25.224 32.0975 24.036 31.2575 22.5C30.4175 20.94 29.9975 19.14 29.9975 17.1C29.9975 15.06 30.4055 13.272 31.2215 11.736C32.0375 10.2 33.1775 9.024 34.6415 8.208C36.1295 7.368 37.8335 6.948 39.7535 6.948C41.6255 6.948 43.2815 7.356 44.7215 8.172C46.1615 8.988 47.2655 10.116 48.0335 11.556C48.8255 12.972 49.2215 14.58 49.2215 16.38ZM45.8375 15.696C45.8375 14.448 45.5615 13.38 45.0095 12.492C44.4575 11.58 43.7015 10.896 42.7415 10.44C41.8055 9.96 40.7615 9.72 39.6095 9.72C37.9535 9.72 36.5375 10.248 35.3615 11.304C34.2095 12.36 33.5495 13.824 33.3815 15.696H45.8375ZM58.6217 9.972V21.6C58.6217 22.56 58.8257 23.244 59.2337 23.652C59.6417 24.036 60.3497 24.228 61.3577 24.228H63.7697V27H60.8177C58.9937 27 57.6257 26.58 56.7137 25.74C55.8017 24.9 55.3457 23.52 55.3457 21.6V9.972H52.7897V7.272H55.3457V2.304H58.6217V7.272H63.7697V9.972H58.6217ZM86.4807 27.324C84.9687 27.324 83.6127 27.072 82.4127 26.568C81.2127 26.04 80.2647 25.32 79.5687 24.408C78.8727 23.472 78.4887 22.404 78.4167 21.204H81.8007C81.8967 22.188 82.3527 22.992 83.1687 23.616C84.0087 24.24 85.1007 24.552 86.4447 24.552C87.6927 24.552 88.6767 24.276 89.3967 23.724C90.1167 23.172 90.4767 22.476 90.4767 21.636C90.4767 20.772 90.0927 20.136 89.3247 19.728C88.5567 19.296 87.3687 18.876 85.7607 18.468C84.2967 18.084 83.0967 17.7 82.1607 17.316C81.2487 16.908 80.4567 16.32 79.7847 15.552C79.1367 14.76 78.8127 13.728 78.8127 12.456C78.8127 11.448 79.1127 10.524 79.7127 9.684C80.3127 8.844 81.1647 8.184 82.2687 7.704C83.3727 7.2 84.6327 6.948 86.0487 6.948C88.2327 6.948 89.9967 7.5 91.3407 8.604C92.6847 9.708 93.4047 11.22 93.5007 13.14H90.2247C90.1527 12.108 89.7327 11.28 88.9647 10.656C88.2207 10.032 87.2127 9.72 85.9407 9.72C84.7647 9.72 83.8287 9.972 83.1327 10.476C82.4367 10.98 82.0887 11.64 82.0887 12.456C82.0887 13.104 82.2927 13.644 82.7007 14.076C83.1327 14.484 83.6607 14.82 84.2847 15.084C84.9327 15.324 85.8207 15.6 86.9487 15.912C88.3647 16.296 89.5167 16.68 90.4047 17.064C91.2927 17.424 92.0487 17.976 92.6727 18.72C93.3207 19.464 93.6567 20.436 93.6807 21.636C93.6807 22.716 93.3807 23.688 92.7807 24.552C92.1807 25.416 91.3287 26.1 90.2247 26.604C89.1447 27.084 87.8967 27.324 86.4807 27.324ZM103.381 9.972V21.6C103.381 22.56 103.585 23.244 103.993 23.652C104.401 24.036 105.109 24.228 106.117 24.228H108.529V27H105.577C103.753 27 102.385 26.58 101.473 25.74C100.561 24.9 100.105 23.52 100.105 21.6V9.972H97.5493V7.272H100.105V2.304H103.381V7.272H108.529V9.972H103.381ZM112.355 17.064C112.355 15.048 112.763 13.284 113.579 11.772C114.395 10.236 115.511 9.048 116.927 8.208C118.367 7.368 119.963 6.948 121.715 6.948C123.443 6.948 124.943 7.32 126.215 8.064C127.487 8.808 128.435 9.744 129.059 10.872V7.272H132.371V27H129.059V23.328C128.411 24.48 127.439 25.44 126.143 26.208C124.871 26.952 123.383 27.324 121.679 27.324C119.927 27.324 118.343 26.892 116.927 26.028C115.511 25.164 114.395 23.952 113.579 22.392C112.763 20.832 112.355 19.056 112.355 17.064ZM129.059 17.1C129.059 15.612 128.759 14.316 128.159 13.212C127.559 12.108 126.743 11.268 125.711 10.692C124.703 10.092 123.587 9.792 122.363 9.792C121.139 9.792 120.023 10.08 119.015 10.656C118.007 11.232 117.203 12.072 116.603 13.176C116.003 14.28 115.703 15.576 115.703 17.064C115.703 18.576 116.003 19.896 116.603 21.024C117.203 22.128 118.007 22.98 119.015 23.58C120.023 24.156 121.139 24.444 122.363 24.444C123.587 24.444 124.703 24.156 125.711 23.58C126.743 22.98 127.559 22.128 128.159 21.024C128.759 19.896 129.059 18.588 129.059 17.1ZM142.263 10.476C142.839 9.348 143.655 8.472 144.711 7.848C145.791 7.224 147.099 6.912 148.635 6.912V10.296H147.771C144.099 10.296 142.263 12.288 142.263 16.272V27H138.987V7.272H142.263V10.476ZM157.492 9.972V21.6C157.492 22.56 157.696 23.244 158.104 23.652C158.512 24.036 159.22 24.228 160.228 24.228H162.64V27H159.688C157.864 27 156.496 26.58 155.584 25.74C154.672 24.9 154.216 23.52 154.216 21.6V9.972H151.66V7.272H154.216V2.304H157.492V7.272H162.64V9.972H157.492ZM185.69 16.38C185.69 17.004 185.654 17.664 185.582 18.36H169.814C169.934 20.304 170.594 21.828 171.794 22.932C173.018 24.012 174.494 24.552 176.222 24.552C177.638 24.552 178.814 24.228 179.75 23.58C180.71 22.908 181.382 22.02 181.766 20.916H185.294C184.766 22.812 183.71 24.36 182.126 25.56C180.542 26.736 178.574 27.324 176.222 27.324C174.35 27.324 172.67 26.904 171.182 26.064C169.718 25.224 168.566 24.036 167.726 22.5C166.886 20.94 166.466 19.14 166.466 17.1C166.466 15.06 166.874 13.272 167.69 11.736C168.506 10.2 169.646 9.024 171.11 8.208C172.598 7.368 174.302 6.948 176.222 6.948C178.094 6.948 179.75 7.356 181.19 8.172C182.63 8.988 183.734 10.116 184.502 11.556C185.294 12.972 185.69 14.58 185.69 16.38ZM182.306 15.696C182.306 14.448 182.03 13.38 181.478 12.492C180.926 11.58 180.17 10.896 179.21 10.44C178.274 9.96 177.23 9.72 176.078 9.72C174.422 9.72 173.006 10.248 171.83 11.304C170.678 12.36 170.018 13.824 169.85 15.696H182.306ZM189.87 17.064C189.87 15.048 190.278 13.284 191.094 11.772C191.91 10.236 193.026 9.048 194.442 8.208C195.882 7.368 197.49 6.948 199.266 6.948C200.802 6.948 202.23 7.308 203.55 8.028C204.87 8.724 205.878 9.648 206.574 10.8V0.36H209.886V27H206.574V23.292C205.926 24.468 204.966 25.44 203.694 26.208C202.422 26.952 200.934 27.324 199.23 27.324C197.478 27.324 195.882 26.892 194.442 26.028C193.026 25.164 191.91 23.952 191.094 22.392C190.278 20.832 189.87 19.056 189.87 17.064ZM206.574 17.1C206.574 15.612 206.274 14.316 205.674 13.212C205.074 12.108 204.258 11.268 203.226 10.692C202.218 10.092 201.102 9.792 199.878 9.792C198.654 9.792 197.538 10.08 196.53 10.656C195.522 11.232 194.718 12.072 194.118 13.176C193.518 14.28 193.218 15.576 193.218 17.064C193.218 18.576 193.518 19.896 194.118 21.024C194.718 22.128 195.522 22.98 196.53 23.58C197.538 24.156 198.654 24.444 199.878 24.444C201.102 24.444 202.218 24.156 203.226 23.58C204.258 22.98 205.074 22.128 205.674 21.024C206.274 19.896 206.574 18.588 206.574 17.1Z" fill="white"/>
</svg>
